<?xml version="1.0" standalone="no"?>
<!DOCTYPE svg PUBLIC "-//W3C//DTD SVG 20010904//EN"
 "http://www.w3.org/TR/2001/REC-SVG-20010904/DTD/svg10.dtd">
<svg version="1.0" xmlns="http://www.w3.org/2000/svg"
 width="700.000000pt" height="700.000000pt" viewBox="0 0 700.000000 700.000000"
 preserveAspectRatio="xMidYMid meet">
<metadata>
Created by potrace 1.14, written by Peter Selinger 2001-2017
</metadata>
<g transform="translate(0.000000,700.000000) scale(0.100000,-0.100000)"
fill="#000000" stroke="none">
<path d="M3283 5820 c-32 -13 -77 -93 -380 -680 -41 -80 -99 -190 -128 -245
-29 -55 -81 -154 -115 -220 -35 -66 -79 -151 -100 -190 -20 -38 -65 -124 -100
-190 -35 -66 -66 -124 -70 -130 -4 -5 -35 -64 -70 -130 -145 -277 -559 -1002
-711 -1245 -37 -60 -447 -744 -467 -780 -14 -25 -33 -56 -42 -70 -32 -47 -429
-708 -442 -734 -10 -22 -9 -29 5 -43 14 -15 104 -17 959 -19 2243 -7 4635 -7
4655 0 49 16 34 69 -49 167 -29 35 -92 111 -138 169 -47 58 -107 132 -135 165
-27 34 -66 81 -85 105 -19 24 -48 60 -65 80 -34 40 -46 54 -60 72 -6 7 -39 49
-75 93 -36 43 -72 88 -80 98 -8 11 -20 24 -25 31 -6 6 -78 94 -160 196 -82
102 -151 187 -155 190 -3 3 -56 68 -117 145 -61 77 -121 146 -132 153 -51 30
-53 29 -606 -183 -110 -42 -261 -99 -335 -127 -74 -28 -141 -55 -147 -61 -18
-14 -16 -54 3 -65 11 -6 47 -1 108 15 50 13 98 26 106 28 8 1 96 24 194 49 99
26 189 46 200 44 18 -3 42 -29 131 -143 76 -97 349 -443 371 -470 57 -71 96
-135 91 -150 -6 -14 -94 -15 -894 -11 -489 3 -1186 5 -1550 6 -617 1 -663 2
-684 18 l-21 18 92 180 c51 98 95 184 100 189 4 6 44 82 90 170 198 382 296
568 325 620 12 22 53 99 90 170 37 72 76 144 85 160 10 17 46 84 80 150 110
211 210 399 225 425 8 14 39 72 69 130 98 191 221 403 239 414 21 13 26 8 342
-339 120 -131 155 -165 172 -165 11 0 11 4 -1 28 -34 66 -342 561 -458 737
-44 66 -68 70 -102 16 -14 -22 -69 -125 -122 -228 -145 -283 -427 -819 -472
-898 -6 -11 -53 -96 -103 -190 -146 -269 -511 -889 -878 -1489 -66 -109 -121
-204 -121 -212 0 -7 4 -15 9 -19 5 -3 840 -8 1854 -11 1816 -6 1845 -6 1855
13 14 25 -9 60 -154 235 -60 73 -157 192 -214 263 -58 72 -107 132 -111 135
-14 12 -199 252 -199 259 0 27 103 66 257 97 55 11 86 -17 228 -201 17 -22
193 -243 392 -492 418 -522 423 -528 423 -559 0 -34 -33 -39 -238 -37 -222 2
-3162 14 -3923 16 -599 2 -590 1 -604 48 -7 21 9 55 148 310 52 96 119 221
149 279 60 114 133 253 208 395 26 50 70 133 98 185 65 123 535 1007 577 1085
18 33 61 114 95 180 35 66 74 140 88 165 36 67 308 578 422 795 29 55 60 114
70 130 10 17 38 68 63 115 162 306 177 327 221 316 20 -5 94 -109 362 -514
185 -279 404 -609 486 -734 86 -129 159 -228 169 -231 34 -9 44 -29 -211 448
-21 39 -93 174 -160 300 -67 127 -142 266 -165 310 -24 44 -90 168 -147 275
-58 107 -135 251 -171 320 -162 307 -169 317 -214 300z"/>
</g>
</svg>
