<svg id="Layer_1" data-name="Layer 1" xmlns="http://www.w3.org/2000/svg" viewBox="0 0 136.2 22"><defs><style>.cls-1{fill:#72d4d4;stroke:#72d4d4;stroke-miterlimit:10;}</style></defs><path class="cls-1" d="M111.06,16.18a3.75,3.75,0,0,1-.54,2.05,3.33,3.33,0,0,1-1.45,1.28,5.5,5.5,0,0,1-1.35.4,11.65,11.65,0,0,1-1.82.13h-.59c0-.38,0-1.07,0-2.08s0-2.23,0-3.65V11.78c0-.82,0-1.65,0-2.51h1l0,3.35a7.8,7.8,0,0,1,2.18.27,4.08,4.08,0,0,1,1.37.67,3,3,0,0,1,.87,1.11A3.63,3.63,0,0,1,111.06,16.18Zm-1.07,0a2.38,2.38,0,0,0-.45-1.47,2.61,2.61,0,0,0-1.18-.86,4.94,4.94,0,0,0-.8-.22,5.29,5.29,0,0,0-.9-.07h-.32c0,.1,0,.49,0,1.15v1.65c0,.8,0,1.37,0,1.71v1a6.88,6.88,0,0,0,1.34-.12,3.42,3.42,0,0,0,1-.37,2.42,2.42,0,0,0,1-1A3,3,0,0,0,110,16.21Z"/><path class="cls-1" d="M30.17,15.78c0,1.2,0,2.18,0,2.93v1.22l-.62.06c-.37,0-.84.05-1.43.05A5.76,5.76,0,0,1,27,19.93a3.86,3.86,0,0,1-1-.32,2.26,2.26,0,0,1-.86-.73,2,2,0,0,1,.06-2.31,2.77,2.77,0,0,1,1.08-.82,5.8,5.8,0,0,1,1.16-.35,15.47,15.47,0,0,1,1.65-.24,2.26,2.26,0,0,0-.26-.93,1.42,1.42,0,0,0-.65-.55,2.14,2.14,0,0,0-.65-.18,5.17,5.17,0,0,0-.84-.06l-.51,0-.57,0,.11-1,.39,0,.81,0a5,5,0,0,1,1.4.18,2.37,2.37,0,0,1,1,.58,2.43,2.43,0,0,1,.57.93A5.15,5.15,0,0,1,30.17,15.78Zm-1,1.75V16c-.2,0-.54.06-1,.13a5.46,5.46,0,0,0-1.23.32,2,2,0,0,0-.66.46,1,1,0,0,0-.29.76,1.22,1.22,0,0,0,.24.79,1.52,1.52,0,0,0,.68.46,2.62,2.62,0,0,0,.72.18,5.49,5.49,0,0,0,.83.06h.33l.41,0V17.53Z"/><path class="cls-1" d="M61.73,16.06H56.92a3.31,3.31,0,0,0,.3,1.42,2.54,2.54,0,0,0,.9,1.06,2.77,2.77,0,0,0,.87.4,4.57,4.57,0,0,0,1.19.14l.7,0,.38,0-.12,1-.35,0-.7,0a5,5,0,0,1-1.86-.31,3.42,3.42,0,0,1-1.29-.83,3.63,3.63,0,0,1-.74-1.13,3.8,3.8,0,0,1-.3-1.53,4.72,4.72,0,0,1,.23-1.5,4,4,0,0,1,.68-1.24,2.59,2.59,0,0,1,1-.76A2.85,2.85,0,0,1,59,12.47a2.92,2.92,0,0,1,1.1.2,2.27,2.27,0,0,1,.83.62,3.25,3.25,0,0,1,.6,1.14A6,6,0,0,1,61.73,16.06Zm-1-.81a2.52,2.52,0,0,0-.56-1.41,1.56,1.56,0,0,0-1.21-.51,1.64,1.64,0,0,0-1.24.52,2.84,2.84,0,0,0-.69,1.4Z"/><path class="cls-1" d="M96.09,15.78v2.93c0,.76,0,1.17,0,1.22l-.62.06c-.37,0-.84.05-1.42.05a5.86,5.86,0,0,1-1.1-.11,3.64,3.64,0,0,1-1-.32,2.22,2.22,0,0,1-.87-.73,2,2,0,0,1,.06-2.31,2.73,2.73,0,0,1,1.09-.82,5.49,5.49,0,0,1,1.15-.35,15.47,15.47,0,0,1,1.65-.24,2.26,2.26,0,0,0-.26-.93,1.42,1.42,0,0,0-.65-.55,2.14,2.14,0,0,0-.65-.18,5.17,5.17,0,0,0-.84-.06l-.51,0-.57,0,.11-1,.4,0,.8,0a5,5,0,0,1,1.4.18,2.32,2.32,0,0,1,1,.58,2.43,2.43,0,0,1,.57.93A5.15,5.15,0,0,1,96.09,15.78Zm-1,1.75V16c-.2,0-.54.06-1,.13a5.46,5.46,0,0,0-1.23.32,2,2,0,0,0-.66.46,1.09,1.09,0,0,0-.29.76,1.17,1.17,0,0,0,.25.79,1.44,1.44,0,0,0,.67.46,2.62,2.62,0,0,0,.72.18,5.53,5.53,0,0,0,.84.06h.32l.41,0V17.53Z"/><path class="cls-1" d="M102.81,13.33a9.48,9.48,0,0,0-1.16.41q-.78.31-1.8.84c0,.06,0,.31,0,.75v1.25c0,.59,0,1.29,0,2.1s0,1.27,0,1.36H98.78c0-.09,0-.37,0-.84s0-1.29,0-2.44c0-.47,0-1.12,0-2s0-1.63,0-2.37h1.07v1.14h0a13.59,13.59,0,0,1,1.53-.83,7.4,7.4,0,0,1,1.21-.48Z"/><path class="cls-1" d="M118.85,15.78v2.93c0,.76,0,1.17,0,1.22l-.62.06c-.37,0-.84.05-1.42.05a5.86,5.86,0,0,1-1.1-.11,3.64,3.64,0,0,1-1-.32,2.12,2.12,0,0,1-.86-.73,2,2,0,0,1,.06-2.31,2.7,2.7,0,0,1,1.08-.82,5.68,5.68,0,0,1,1.15-.35,15.47,15.47,0,0,1,1.65-.24,2.12,2.12,0,0,0-.26-.93,1.42,1.42,0,0,0-.65-.55,2.14,2.14,0,0,0-.65-.18,5.17,5.17,0,0,0-.84-.06l-.51,0-.57,0,.11-1,.4,0,.81,0a5,5,0,0,1,1.4.18,2.33,2.33,0,0,1,1,.58,2.43,2.43,0,0,1,.57.93A5.15,5.15,0,0,1,118.85,15.78Zm-1,1.75v-.62c0-.26,0-.55,0-.88-.2,0-.54.06-1,.13a5.76,5.76,0,0,0-1.23.32,2,2,0,0,0-.66.46,1.09,1.09,0,0,0-.29.76,1.17,1.17,0,0,0,.25.79,1.49,1.49,0,0,0,.67.46,2.71,2.71,0,0,0,.72.18,5.63,5.63,0,0,0,.84.06h.32l.41,0v-.48C117.83,18.4,117.84,18,117.84,17.53Z"/><path class="cls-1" d="M127.07,20h-1c0-.14,0-.6,0-1.39s0-1.26,0-1.45V16.05c0-.5,0-.87,0-1.11a2.22,2.22,0,0,0-.29-1.23,1.1,1.1,0,0,0-.95-.37,2.54,2.54,0,0,0-1,.27,8.19,8.19,0,0,0-1.21.68c0,.06,0,.36,0,.89s0,1,0,1.48,0,1.27,0,2.09,0,1.25,0,1.29h-1s0-.34,0-.92,0-1.43,0-2.57V14.71c0-.7,0-1.45,0-2.24h1v.88a8.87,8.87,0,0,1,1.56-.84,2.94,2.94,0,0,1,1-.23,1.71,1.71,0,0,1,1.37.6,2.47,2.47,0,0,1,.52,1.65c0,.62,0,1.17,0,1.62s0,.83,0,1.11c0,.46,0,1,0,1.7S127.07,20,127.07,20Z"/><path class="cls-1" d="M38.5,16.06H33.69a3.31,3.31,0,0,0,.3,1.42,2.54,2.54,0,0,0,.9,1.06,2.73,2.73,0,0,0,.88.4,4.44,4.44,0,0,0,1.18.14l.7,0L38,19l-.12,1-.35,0-.7,0A5,5,0,0,1,35,19.73a3.42,3.42,0,0,1-1.29-.83A3.63,3.63,0,0,1,33,17.77a3.8,3.8,0,0,1-.3-1.53,4.72,4.72,0,0,1,.23-1.5,4,4,0,0,1,.68-1.24,2.59,2.59,0,0,1,1-.76,2.85,2.85,0,0,1,1.21-.27,2.92,2.92,0,0,1,1.1.2,2.27,2.27,0,0,1,.83.62,3.25,3.25,0,0,1,.6,1.14A6,6,0,0,1,38.5,16.06Zm-1-.81a2.52,2.52,0,0,0-.56-1.41,1.55,1.55,0,0,0-1.2-.51,1.65,1.65,0,0,0-1.25.52,2.84,2.84,0,0,0-.69,1.4Z"/><path class="cls-1" d="M53.32,18.68a2.71,2.71,0,0,1-1.24.33c-.79,0-1.31-.45-1.31-1.49V9.27H48.51l-1.2,1h2.33v7.16c0,1.71.78,2.61,2.2,2.61a3.69,3.69,0,0,0,1.77-.44Z"/><path class="cls-1" d="M46.64,18.68A2.71,2.71,0,0,1,45.4,19c-.79,0-1.31-.45-1.31-1.49V9.27H42l-1.21,1H43v7.16c0,1.71.78,2.61,2.2,2.61a3.66,3.66,0,0,0,1.77-.44Z"/><ellipse class="cls-1" cx="132.81" cy="10.37" rx="0.58" ry="0.63"/><ellipse class="cls-1" cx="34.43" cy="9.76" rx="0.58" ry="0.63"/><ellipse class="cls-1" cx="37.12" cy="9.76" rx="0.58" ry="0.63"/><polygon class="cls-1" points="130.5 12.49 129.38 13.46 129.38 13.53 132.31 13.53 132.31 20.04 133.39 20.04 133.39 12.49 130.5 12.49"/><path class="cls-1" d="M16.69,14.48l1-.27a.4.4,0,0,1,.34.11,7.73,7.73,0,0,1,.49.64c.92,1.28,1.84,2.35,2.75,3.63.05.07.12.19.08.27s-.13.06-.23.08l-2.42,0L7.35,18.87H5a.25.25,0,0,1-.24-.38c.36-.75.72-1.29,1.09-2l2.43-5,2.4-4.95L11.9,4c.16-.31.25-.28.45-.06l3.21,5.3v0c.13.21.25.36.29.33s0-.15-.11-.32L12.23,2.09a.18.18,0,0,0-.32,0c-.16.31-.31.6-.45.89C10.74,4.5,10,6,9.3,7.5,8.69,8.75,8.09,10,7.44,11.21,6.59,12.82,5.7,14.42,4.82,16l-1.93,3.5c-.08.14,0,.26.16.26H4.92l11.78,0h5.57c.28,0,.35-.12.2-.36a3.88,3.88,0,0,0-.32-.47q-2-2.7-4-5.41a.43.43,0,0,0-.51-.13c-1.12.46-2.24.92-3.36,1.4-.09,0-.37.18-.35.3s.37,0,.47,0l2-.56Z"/><path class="cls-1" d="M82.65,14.48l1-.27a.36.36,0,0,1,.33.09c.19.21.33.44.5.66.91,1.28,1.83,2.35,2.75,3.63,0,.07.12.19.08.27s-.13.06-.23.08l-2.42,0-11.32-.05H71a.25.25,0,0,1-.24-.38c.36-.75.72-1.29,1.08-2q1.23-2.5,2.44-5l2.4-4.95L77.86,4c.15-.31.25-.28.44-.06l3.22,5.3v0c.12.21.25.36.29.33s0-.15-.11-.32L78.19,2.09a.18.18,0,0,0-.32,0c-.16.31-.31.6-.45.89C76.69,4.5,76,6,75.26,7.5,74.65,8.75,74,10,73.4,11.21c-.85,1.61-1.74,3.21-2.62,4.81l-1.93,3.5c-.08.14,0,.26.16.26h1.86l11.79,0h5.57c.28,0,.35-.12.2-.36A3.06,3.06,0,0,0,88.1,19c-1.34-1.8-2.69-3.6-4-5.41a.43.43,0,0,0-.51-.13c-1.12.46-2.24.92-3.36,1.4-.09,0-.37.18-.35.3s.37,0,.47,0l2-.56Z"/></svg>