<svg id="Layer_1" data-name="Layer 1" xmlns="http://www.w3.org/2000/svg" viewBox="0 0 170 24"><defs><style>.cls-1,.cls-2{fill:#00afb9;}.cls-1{stroke:#00afb9;stroke-miterlimit:10;stroke-width:0.5px;}</style></defs><path class="cls-1" d="M19.14,15.76l1.17-.3a.53.53,0,0,1,.4.12,8.06,8.06,0,0,1,.59.72l3.3,4.21c.07.09.14.21.1.31s-.16.06-.28.08c-1,0-1.94,0-2.9,0l-13.59,0H5.12c-.29,0-.42-.18-.3-.41.43-.83.87-1.65,1.31-2.48q1.45-2.76,2.92-5.51L11.93,7l1.46-2.73c.19-.34.3-.31.54-.07L17.78,10l0,0c.15.22.3.39.34.36s0-.17-.12-.36L13.79,2.13a.23.23,0,0,0-.38,0c-.2.35-.38.67-.55,1-.87,1.65-1.71,3.31-2.59,5C9.54,9.46,8.81,10.82,8,12.17,7,13.94,6,15.7,4.9,17.46,4.13,18.75,3.35,20,2.58,21.3c-.09.16,0,.29.19.29.75,0,1.49,0,2.24,0l14.14,0h6.68c.34,0,.42-.14.25-.4s-.26-.35-.39-.52l-4.84-5.94a.53.53,0,0,0-.62-.15c-1.34.51-2.69,1-4,1.54-.11,0-.45.2-.41.33s.44,0,.56,0l2.37-.62Z"/><path class="cls-1" d="M102,15.78l1.17-.3a.52.52,0,0,1,.4.12,7.93,7.93,0,0,1,.59.71l3.3,4.22c.07.08.15.21.1.3s-.16.07-.28.09l-2.9,0-13.59-.05H88c-.28,0-.42-.19-.3-.41L89,18q1.46-2.76,2.92-5.52L94.76,7c.49-.92,1-1.82,1.47-2.73.18-.34.3-.31.53-.07L100.61,10l0,0c.15.22.3.38.34.36s0-.18-.12-.36L96.62,2.15a.23.23,0,0,0-.38,0c-.19.34-.38.66-.55,1-.86,1.65-1.71,3.31-2.59,5-.72,1.36-1.45,2.73-2.23,4.07-1,1.78-2.09,3.54-3.14,5.3q-1.16,1.92-2.32,3.84c-.09.16,0,.29.19.29h2.24l14.14,0h6.68c.34,0,.42-.14.25-.4a4.7,4.7,0,0,0-.39-.52l-4.84-5.94a.55.55,0,0,0-.62-.16l-4,1.54c-.11.05-.44.21-.41.33s.44,0,.56,0l2.37-.62Z"/><path class="cls-2" d="M118.33,16.54c0,1.49,0,2.71,0,3.65s0,1.45,0,1.52l-.75.07c-.44,0-1,.06-1.73.06a6.73,6.73,0,0,1-1.33-.13,4.39,4.39,0,0,1-1.16-.39,2.81,2.81,0,0,1-1-.92,2.35,2.35,0,0,1-.4-1.39,2.39,2.39,0,0,1,.47-1.49,3.4,3.4,0,0,1,1.31-1,7.19,7.19,0,0,1,1.41-.44,14.5,14.5,0,0,1,2-.29,2.7,2.7,0,0,0-.32-1.16,1.75,1.75,0,0,0-.78-.69,3.12,3.12,0,0,0-.8-.23,7.39,7.39,0,0,0-1-.07l-.62,0-.69,0,.13-1.21.48,0,1,0a5.94,5.94,0,0,1,1.7.22,2.89,2.89,0,0,1,1.24.72,3,3,0,0,1,.7,1.16A6.82,6.82,0,0,1,118.33,16.54Zm-1.24,2.18V16.85c-.24,0-.66.07-1.25.16a6.23,6.23,0,0,0-1.49.41,2.14,2.14,0,0,0-.81.57,1.33,1.33,0,0,0-.35.94,1.54,1.54,0,0,0,.3,1,1.84,1.84,0,0,0,.82.57,3.26,3.26,0,0,0,.87.22,6.63,6.63,0,0,0,1,.07h.89v-2Z"/><path class="cls-2" d="M127.18,13.75a11.55,11.55,0,0,0-1.36.5c-.61.25-1.31.59-2.11,1,0,.07,0,.37,0,.91s0,1,0,1.51c0,.71,0,1.55,0,2.53s0,1.52,0,1.63h-1.27c0-.1,0-.44,0-1s0-1.56,0-2.94c0-.56,0-1.35,0-2.36s0-1.95,0-2.85h1.25v1.38h0a18.35,18.35,0,0,1,1.8-1,11.55,11.55,0,0,1,1.42-.58Z"/><path class="cls-2" d="M137.05,17a4.83,4.83,0,0,1-.65,2.55,4.09,4.09,0,0,1-1.76,1.59,6.06,6.06,0,0,1-1.64.5,12.75,12.75,0,0,1-2.21.16h-.72c0-.46,0-1.32,0-2.59s0-2.77,0-4.54c0-1.09,0-2.14,0-3.16s0-2.06,0-3.12h1.27l0,4.17a9.32,9.32,0,0,1,2.65.33,4.89,4.89,0,0,1,1.66.85,3.44,3.44,0,0,1,1.05,1.38A4.51,4.51,0,0,1,137.05,17Zm-1.29,0a3,3,0,0,0-.56-1.84,3.15,3.15,0,0,0-1.42-1.07,5,5,0,0,0-1-.27,6.4,6.4,0,0,0-1.09-.1h-.39c0,.14,0,.62,0,1.45v2c0,1,0,1.72,0,2.14s0,.83,0,1.26a8.12,8.12,0,0,0,1.62-.15,4.14,4.14,0,0,0,1.27-.46,3,3,0,0,0,1.16-1.22A4,4,0,0,0,135.76,17.08Z"/><path class="cls-2" d="M146.09,16.54c0,1.49,0,2.71,0,3.65s0,1.45,0,1.52l-.75.07c-.45,0-1,.06-1.73.06a6.66,6.66,0,0,1-1.33-.13,4.39,4.39,0,0,1-1.16-.39,2.81,2.81,0,0,1-1-.92,2.35,2.35,0,0,1-.4-1.39,2.39,2.39,0,0,1,.47-1.49,3.33,3.33,0,0,1,1.31-1,7.29,7.29,0,0,1,1.4-.44,14.73,14.73,0,0,1,2-.29,2.57,2.57,0,0,0-.31-1.16,1.73,1.73,0,0,0-.79-.69,3,3,0,0,0-.79-.23,7.42,7.42,0,0,0-1-.07l-.61,0-.69,0,.12-1.21.49,0,1,0a5.94,5.94,0,0,1,1.7.22,2.77,2.77,0,0,1,1.93,1.88A6.44,6.44,0,0,1,146.09,16.54Zm-1.24,2.18v-.78c0-.31,0-.68,0-1.09-.23,0-.65.07-1.24.16a6.46,6.46,0,0,0-1.5.41,2.11,2.11,0,0,0-.8.57,1.33,1.33,0,0,0-.35.94,1.54,1.54,0,0,0,.3,1,1.86,1.86,0,0,0,.81.57,3.44,3.44,0,0,0,.88.22,6.58,6.58,0,0,0,1,.07h.89c0-.05,0-.25,0-.6Z"/><path class="cls-2" d="M156.92,21.84h-1.27c0-.17,0-.73,0-1.67s0-1.54,0-1.76,0-.78,0-1.39,0-1.06,0-1.34a2.69,2.69,0,0,0-.35-1.5,1.34,1.34,0,0,0-1.15-.45,3.06,3.06,0,0,0-1.22.33,8.41,8.41,0,0,0-1.47.83c0,.07,0,.43,0,1.08s0,1.24,0,1.78c0,.7,0,1.55,0,2.54s0,1.5,0,1.55h-1.28s0-.41,0-1.11,0-1.73,0-3.11c0-.63,0-1.37,0-2.22s0-1.76,0-2.72h1.27v1.06a10.92,10.92,0,0,1,1.88-1,3.76,3.76,0,0,1,1.26-.28,2.07,2.07,0,0,1,1.66.73,2.93,2.93,0,0,1,.63,2c0,.76,0,1.42,0,2s0,1,0,1.34c0,.55,0,1.24,0,2.06S156.92,21.8,156.92,21.84Z"/><path class="cls-2" d="M35.58,16.57c0,1.5,0,2.72,0,3.66s0,1.45,0,1.52l-.75.07c-.45,0-1,.06-1.73.06a6.68,6.68,0,0,1-1.33-.14,4.26,4.26,0,0,1-1.16-.39,2.8,2.8,0,0,1-1.05-.91,2.45,2.45,0,0,1-.4-1.39,2.37,2.37,0,0,1,.48-1.49,3.33,3.33,0,0,1,1.31-1,6.65,6.65,0,0,1,1.4-.44,16.38,16.38,0,0,1,2-.3A2.65,2.65,0,0,0,34,14.65a1.67,1.67,0,0,0-.79-.69,2.7,2.7,0,0,0-.79-.23,6.12,6.12,0,0,0-1-.07l-.62,0-.69,0,.13-1.2.48,0q.36,0,1,0a5.92,5.92,0,0,1,1.7.23,2.75,2.75,0,0,1,1.24.72,3,3,0,0,1,.69,1.16A6.42,6.42,0,0,1,35.58,16.57Zm-1.24,2.19V18c0-.32,0-.68,0-1.09-.24,0-.65.07-1.24.16a6.35,6.35,0,0,0-1.5.4,2.35,2.35,0,0,0-.8.57,1.32,1.32,0,0,0-.35.94,1.54,1.54,0,0,0,.3,1,1.75,1.75,0,0,0,.81.58,3.91,3.91,0,0,0,.88.22,6.58,6.58,0,0,0,1,.07h.4l.49,0s0-.24,0-.6Z"/><circle class="cls-2" cx="41.5" cy="9.13" r="0.71"/><circle class="cls-2" cx="44.34" cy="9.13" r="0.71"/><path class="cls-2" d="M46,16.93H40.16a4.43,4.43,0,0,0,.37,1.76A3.16,3.16,0,0,0,41.62,20a3.47,3.47,0,0,0,1.06.51,5.5,5.5,0,0,0,1.44.16l.85,0,.47,0-.15,1.2-.42,0-.86,0a6.16,6.16,0,0,1-2.25-.38,4.17,4.17,0,0,1-1.57-1,4.81,4.81,0,0,1-.9-1.42,4.89,4.89,0,0,1-.36-1.91,6,6,0,0,1,.27-1.86A5.06,5.06,0,0,1,40,13.73a3.13,3.13,0,0,1,1.18-1,3.43,3.43,0,0,1,1.47-.33A3.29,3.29,0,0,1,44,12.7a2.78,2.78,0,0,1,1,.77,4.06,4.06,0,0,1,.73,1.42A8,8,0,0,1,46,16.93Zm-1.26-1a3.16,3.16,0,0,0-.68-1.76,1.85,1.85,0,0,0-1.46-.64,2,2,0,0,0-1.51.65,3.68,3.68,0,0,0-.84,1.75Z"/><path class="cls-2" d="M76.14,16.93H70.29a4.43,4.43,0,0,0,.37,1.76A3.16,3.16,0,0,0,71.75,20a3.47,3.47,0,0,0,1.06.51,5.5,5.5,0,0,0,1.44.16l.85,0,.47,0-.14,1.2-.43,0-.86,0a6.16,6.16,0,0,1-2.25-.38,4.17,4.17,0,0,1-1.57-1,4.81,4.81,0,0,1-.9-1.42,4.89,4.89,0,0,1-.36-1.91,6,6,0,0,1,.27-1.86,5.06,5.06,0,0,1,.83-1.55,3.13,3.13,0,0,1,1.18-1,3.43,3.43,0,0,1,1.47-.33,3.29,3.29,0,0,1,1.33.25,2.78,2.78,0,0,1,1,.77,4.06,4.06,0,0,1,.73,1.42A8,8,0,0,1,76.14,16.93Zm-1.26-1a3.16,3.16,0,0,0-.68-1.76,1.85,1.85,0,0,0-1.46-.64,2,2,0,0,0-1.51.65,3.68,3.68,0,0,0-.84,1.75Z"/><path class="cls-2" d="M56.44,20.19a3.27,3.27,0,0,1-1.5.41c-1,0-1.59-.56-1.59-1.85V8.46H50.57L49.33,9.7H52v8.93c0,2.14,1,3.25,2.67,3.25a4.45,4.45,0,0,0,2.15-.54Z"/><circle class="cls-2" cx="164.21" cy="11.02" r="0.71"/><polygon class="cls-2" points="161.53 12.83 160.29 14.07 163.63 14.07 163.63 21.84 165 21.84 165 12.83 161.53 12.83"/><path class="cls-2" d="M65.72,20.19a3.27,3.27,0,0,1-1.5.41c-1,0-1.59-.56-1.59-1.85V8.46H59.8L58.55,9.7h2.7v8.93c0,2.14,1,3.25,2.67,3.25a4.45,4.45,0,0,0,2.15-.54Z"/></svg>