<?xml version="1.0" standalone="no"?>
<!DOCTYPE svg PUBLIC "-//W3C//DTD SVG 20010904//EN"
 "http://www.w3.org/TR/2001/REC-SVG-20010904/DTD/svg10.dtd">
<svg version="1.0" xmlns="http://www.w3.org/2000/svg"
 width="700.000000pt" height="700.000000pt" viewBox="0 0 700.000000 700.000000"
 preserveAspectRatio="xMidYMid meet">
<metadata>
Created by potrace 1.14, written by Peter Selinger 2001-2017
</metadata>
<g transform="translate(0.000000,700.000000) scale(0.100000,-0.100000)"
fill="#000000" stroke="none">
<path d="M3246 6200 c-26 -9 -87 -117 -315 -562 -110 -215 -162 -316 -246
-473 -24 -44 -56 -105 -72 -135 -16 -30 -46 -84 -65 -120 -41 -76 -125 -236
-233 -445 -43 -82 -98 -186 -123 -230 -151 -270 -123 -221 -452 -785 -346
-593 -559 -953 -789 -1333 -119 -196 -223 -370 -232 -385 -9 -15 -48 -80 -88
-145 -39 -65 -71 -126 -71 -136 0 -11 11 -23 28 -29 36 -14 5695 -13 5735 1
38 13 35 50 -11 114 -20 28 -185 234 -367 456 -181 223 -342 420 -357 438 -14
19 -36 45 -48 59 -12 14 -34 40 -48 59 -191 242 -459 560 -485 574 -17 9 -41
17 -53 17 -12 0 -118 -37 -235 -81 -118 -45 -241 -92 -274 -104 -263 -96 -548
-211 -554 -224 -13 -24 5 -61 30 -61 12 0 81 14 153 31 72 17 138 32 146 34 8
2 74 17 145 35 72 17 137 33 147 35 11 2 49 -36 114 -113 55 -64 108 -128 120
-142 12 -14 88 -104 169 -200 81 -96 157 -187 170 -201 31 -36 48 -68 42 -82
-7 -17 -3182 -16 -3199 1 -22 22 -18 54 11 106 15 28 59 110 96 181 38 72 108
204 158 295 49 91 114 212 145 270 30 58 58 110 62 115 4 6 33 60 65 120 32
61 61 115 65 120 4 6 35 64 70 130 34 66 70 134 80 150 10 17 39 71 65 120 84
158 127 238 160 300 18 33 52 96 75 140 311 585 334 625 360 625 5 0 156 -150
205 -204 6 -6 55 -60 110 -121 111 -123 183 -195 197 -195 12 0 -18 68 -49
109 l-27 36 39 -29 c22 -17 44 -35 48 -40 57 -71 -145 267 -355 597 -102 158
-145 217 -159 217 -20 0 -40 -28 -106 -150 -23 -41 -57 -104 -78 -140 -56 -98
-203 -369 -385 -710 -211 -396 -238 -444 -310 -570 -21 -36 -54 -96 -75 -135
-45 -84 -231 -410 -254 -445 -22 -34 -35 -55 -75 -125 -19 -33 -145 -244 -280
-470 -185 -308 -242 -412 -234 -422 8 -11 368 -13 1899 -13 1788 0 1889 1
1897 18 14 27 10 35 -90 157 -9 11 -80 99 -158 195 -78 96 -149 184 -158 195
-20 23 -118 143 -135 165 -7 8 -43 52 -80 98 -68 83 -78 110 -54 134 22 22
239 72 280 64 43 -8 64 -29 190 -191 56 -71 107 -137 114 -145 7 -8 80 -100
163 -205 83 -104 168 -210 188 -235 101 -121 371 -470 373 -482 1 -7 1 -18 0
-24 -1 -13 -4793 -16 -4828 -3 -12 4 -27 17 -33 29 -14 27 -5 47 167 360 157
285 196 359 308 575 43 83 101 195 130 250 29 55 81 154 115 220 35 66 77 147
95 180 18 33 54 101 80 150 26 50 51 95 55 100 4 6 33 60 65 120 59 112 106
201 155 290 15 28 49 91 75 140 27 50 92 171 145 270 54 99 121 225 150 280
29 55 79 147 110 205 32 58 79 146 105 195 26 50 60 113 75 140 15 28 82 154
150 280 67 127 132 240 143 253 43 47 79 27 148 -80 29 -46 109 -168 177 -273
69 -104 144 -219 167 -255 23 -36 91 -139 150 -230 164 -250 272 -415 336
-515 67 -104 119 -159 134 -144 7 7 3 22 -11 47 -12 20 -44 80 -71 132 -28 52
-115 214 -193 360 -78 146 -194 362 -257 480 -120 223 -177 330 -223 415 -15
28 -82 154 -150 280 -67 127 -128 240 -135 251 -16 24 -42 34 -69 24z"/>
</g>
</svg>
